# xmcd
#
# Track frame offsets:
#	150
#	15540
#	27322
#	36430
#	55312
#	75217
#	93875
#	104902
#	108865
#	127682
#	164940
#	177345
#	198825
#	211120
#	221052
#	237277
#	250092
#	261727
#	270455
#	293882
#
# Disc length: 4399 seconds
#
# Revision: 1
# Processed by: cddbd v1.5.1PL0 Copyright (c) Steve Scherf et al.
# Submitted via: CDex 1.50Beta5
#
DISCID=1e112d14
DTITLE=Ｐｉａｎｏ - Ｐｉａｎｏ
DYEAR=1900
DGENRE=Piano
TTITLE0=エリーゼのために♪ベートーヴェン
TTITLE1=人形の夢と目覚め　Ｏｐ．２０２　Ｎｏ．４♪オースティン
TTITLE2=カッコー　ワルツ♪ヨナーソン
TTITLE3=アルプスの夕ばえ　Ｏｐ．１９３♪オースティン
TTITLE4=花の歌　Ｏｐ．３９♪ランゲ
TTITLE5=ウォータールーの戦い♪アンダーソン
TTITLE6=クシコス　ポスト♪ネッケ
TTITLE7=楽しき農夫　Ｏｐ．６８♪シューマン
TTITLE8=ベニスの舟歌　Ｏｐ．３０−６♪メンデルスゾーン
TTITLE9=ダニューブの河の漣♪イバノビッチ
TTITLE10=さらばピアノよ♪ベートーヴェン
TTITLE11=小さな音の絵本　Ｏｐ．４９ｂ♪スチャストニー
TTITLE12=エコセーズ♪ベートーヴェン
TTITLE13=プレリュード　ハ短調「平均律第１巻から第１番」ＢＷ．８４６♪バッハ
TTITLE14=トルコ行進曲ＫＶ．３３１♪モーツァルト
TTITLE15=ユーモレスク　Ｏｐ．１０１　Ｎｏ．７♪ドボルザーク
TTITLE16=狩の歌　Ｏｐ．１９　Ｎｏ．３♪メンデルスゾーン
TTITLE17=結婚行進曲〜歌劇「ローエングリーン」から〜♪ワーグナー
TTITLE18=結婚行進曲♪メンデルスゾーン
TTITLE19=銀波♪ワイマン
EXTD=
EXTT0=
EXTT1=
EXTT2=
EXTT3=
EXTT4=
EXTT5=
EXTT6=
EXTT7=
EXTT8=
EXTT9=
EXTT10=
EXTT11=
EXTT12=
EXTT13=
EXTT14=
EXTT15=
EXTT16=
EXTT17=
EXTT18=
EXTT19=
PLAYORDER=
